# xmcd
#
# Track frame offsets:
#	150
#	24019
#	50343
#	76743
#	92643
#	119870
#
# Disc length: 1859 seconds
#
# Revision: 0
# Processed by: cddbd v1.5.2PL0 Copyright (c) Steve Scherf et al.
# Submitted via: EasyCDDAExtractor 16.0.1.1
#
DISCID=3d074106
DTITLE=Gianluca Fanteria And Fabio Amoroso Feat. Laura Groggia - Sing My Song
DYEAR=1900
DGENRE=
TTITLE0=Sing My Song (Andrew Steel Asd Mix)
TTITLE1=Sing My Song (Giuseppe Battaglia Extended Rmx)
TTITLE2=Sing My Song (Adolfo Morrone Rmx)
TTITLE3=Sing My Song (Francois Devois Rmx)
TTITLE4=Sing My Song (Felippe C Rmx)
TTITLE5=Sing My Song (Giuseppe Battaglia Radio Rmx)
EXTD=
EXTT0=
EXTT1=
EXTT2=
EXTT3=
EXTT4=
EXTT5=
PLAYORDER=
